<svg id="visual" viewBox="0 0 900 600" width="900" height="600" xmlns="http://www.w3.org/2000/svg" xmlns:xlink="http://www.w3.org/1999/xlink" version="1.1"><path d="M0 169L90 169L90 289L180 289L180 187L270 187L270 115L360 115L360 169L450 169L450 229L540 229L540 259L630 259L630 199L720 199L720 91L810 91L810 313L900 313L900 169L900 0L900 0L810 0L810 0L720 0L720 0L630 0L630 0L540 0L540 0L450 0L450 0L360 0L360 0L270 0L270 0L180 0L180 0L90 0L90 0L0 0Z" fill="#070707"></path><path d="M0 217L90 217L90 397L180 397L180 247L270 247L270 247L360 247L360 241L450 241L450 361L540 361L540 307L630 307L630 277L720 277L720 199L810 199L810 379L900 379L900 271L900 167L900 311L810 311L810 89L720 89L720 197L630 197L630 257L540 257L540 227L450 227L450 167L360 167L360 113L270 113L270 185L180 185L180 287L90 287L90 167L0 167Z" fill="#4d1e3a"></path><path d="M0 523L90 523L90 535L180 535L180 511L270 511L270 505L360 505L360 409L450 409L450 547L540 547L540 403L630 403L630 493L720 493L720 463L810 463L810 517L900 517L900 475L900 269L900 377L810 377L810 197L720 197L720 275L630 275L630 305L540 305L540 359L450 359L450 239L360 239L360 245L270 245L270 245L180 245L180 395L90 395L90 215L0 215Z" fill="#972a6f"></path><path d="M0 601L90 601L90 601L180 601L180 601L270 601L270 601L360 601L360 601L450 601L450 601L540 601L540 601L630 601L630 601L720 601L720 601L810 601L810 601L900 601L900 601L900 473L900 515L810 515L810 461L720 461L720 491L630 491L630 401L540 401L540 545L450 545L450 407L360 407L360 503L270 503L270 509L180 509L180 533L90 533L90 521L0 521Z" fill="#e82eaa"></path></svg>