<svg id="visual" viewBox="0 0 900 600" width="900" height="600" xmlns="http://www.w3.org/2000/svg" xmlns:xlink="http://www.w3.org/1999/xlink" version="1.1"><path d="M0 235L90 235L90 151L180 151L180 271L270 271L270 247L360 247L360 259L450 259L450 313L540 313L540 163L630 163L630 193L720 193L720 193L810 193L810 175L900 175L900 181L900 0L900 0L810 0L810 0L720 0L720 0L630 0L630 0L540 0L540 0L450 0L450 0L360 0L360 0L270 0L270 0L180 0L180 0L90 0L90 0L0 0Z" fill="#1b1bb6"></path><path d="M0 337L90 337L90 319L180 319L180 397L270 397L270 319L360 319L360 331L450 331L450 391L540 391L540 241L630 241L630 301L720 301L720 331L810 331L810 355L900 355L900 241L900 179L900 173L810 173L810 191L720 191L720 191L630 191L630 161L540 161L540 311L450 311L450 257L360 257L360 245L270 245L270 269L180 269L180 149L90 149L90 233L0 233Z" fill="#820db4"></path><path d="M0 523L90 523L90 511L180 511L180 541L270 541L270 493L360 493L360 541L450 541L450 505L540 505L540 463L630 463L630 493L720 493L720 523L810 523L810 529L900 529L900 475L900 239L900 353L810 353L810 329L720 329L720 299L630 299L630 239L540 239L540 389L450 389L450 329L360 329L360 317L270 317L270 395L180 395L180 317L90 317L90 335L0 335Z" fill="#bb11b0"></path><path d="M0 601L90 601L90 601L180 601L180 601L270 601L270 601L360 601L360 601L450 601L450 601L540 601L540 601L630 601L630 601L720 601L720 601L810 601L810 601L900 601L900 601L900 473L900 527L810 527L810 521L720 521L720 491L630 491L630 461L540 461L540 503L450 503L450 539L360 539L360 491L270 491L270 539L180 539L180 509L90 509L90 521L0 521Z" fill="#e82eaa"></path></svg>